<?xml version="1.0" encoding="UTF-8" standalone="no"?>
<!-- Created with Inkscape (http://www.inkscape.org/) -->

<svg
   xmlns:dc="http://purl.org/dc/elements/1.1/"
   xmlns:cc="http://creativecommons.org/ns#"
   xmlns:rdf="http://www.w3.org/1999/02/22-rdf-syntax-ns#"
   xmlns:svg="http://www.w3.org/2000/svg"
   xmlns="http://www.w3.org/2000/svg"
   xmlns:sodipodi="http://sodipodi.sourceforge.net/DTD/sodipodi-0.dtd"
   xmlns:inkscape="http://www.inkscape.org/namespaces/inkscape"
   width="193.79221"
   height="159.78969"
   id="svg4781"
   version="1.1"
   inkscape:version="0.92.2 (5c3e80d, 2017-08-06)"
   sodipodi:docname="jastadd_logo2.svg"
   inkscape:export-filename="./jastadd_logo2_200px.png"
   inkscape:export-xdpi="120.32"
   inkscape:export-ydpi="120.32">
  <defs
     id="defs4783">
    <inkscape:perspective
       sodipodi:type="inkscape:persp3d"
       inkscape:vp_x="0 : 526.18109 : 1"
       inkscape:vp_y="0 : 1000 : 0"
       inkscape:vp_z="744.09448 : 526.18109 : 1"
       inkscape:persp3d-origin="372.04724 : 350.78739 : 1"
       id="perspective4789" />
    <inkscape:perspective
       id="perspective4768"
       inkscape:persp3d-origin="0.5 : 0.33333333 : 1"
       inkscape:vp_z="1 : 0.5 : 1"
       inkscape:vp_y="0 : 1000 : 0"
       inkscape:vp_x="0 : 0.5 : 1"
       sodipodi:type="inkscape:persp3d" />
  </defs>
  <sodipodi:namedview
     id="base"
     pagecolor="#ffffff"
     bordercolor="#666666"
     borderopacity="1.0"
     inkscape:pageopacity="0.0"
     inkscape:pageshadow="2"
     inkscape:zoom="3.959798"
     inkscape:cx="80.908214"
     inkscape:cy="71.551172"
     inkscape:document-units="px"
     inkscape:current-layer="g2924"
     showgrid="false"
     inkscape:window-width="1440"
     inkscape:window-height="2536"
     inkscape:window-x="0"
     inkscape:window-y="0"
     inkscape:window-maximized="1"
     fit-margin-top="0"
     fit-margin-left="0"
     fit-margin-right="0"
     fit-margin-bottom="0" />
  <metadata
     id="metadata4786">
    <rdf:RDF>
      <cc:Work
         rdf:about="">
        <dc:format>image/svg+xml</dc:format>
        <dc:type
           rdf:resource="http://purl.org/dc/dcmitype/StillImage" />
        <dc:title></dc:title>
      </cc:Work>
    </rdf:RDF>
  </metadata>
  <g
     inkscape:label="Layer 1"
     inkscape:groupmode="layer"
     id="layer1"
     transform="translate(-204.2737,-318.25537)">
    <g
       id="g2924">
      <path
         inkscape:tile-y0="331.74615"
         inkscape:tile-x0="805.67645"
         inkscape:tile-h="236.12934"
         inkscape:tile-w="285.01443"
         inkscape:tile-cy="449.81082"
         inkscape:tile-cx="948.18366"
         inkscape:export-ydpi="60.48"
         inkscape:export-xdpi="60.48"
         inkscape:export-filename="C:\Users\Jesper\Pictures\Inkscape\text4655.png"
         id="path4837"
         style="color:#000000;display:inline;overflow:visible;visibility:visible;fill:#e9830a;fill-opacity:1;fill-rule:nonzero;stroke:#000000;stroke-width:2.21884298;marker:none;enable-background:accumulate"
         d="m 235.01263,467.60176 c 2.51236,0.50666 4.7645,0.65364 6.16777,-0.0467 1.40329,-0.7003 1.69153,-0.87384 2.26741,-1.55593 0.5759,-0.68212 0.82205,-1.27105 1.05723,-2.19267 0.23531,-0.92153 0.10436,-4.35159 0.0742,-4.73062 -0.0304,-0.37901 0.25073,-1.08502 0.36245,-1.354 0.20893,-0.50349 0.60588,-1.0262 0.85304,-1.16192 0.43151,-0.19117 0.82555,-0.3464 2.01523,0.0944 1.49184,0.44681 7.33816,2.53173 10.43332,3.82873 2.42602,1.05625 4.35958,1.91189 5.05015,2.1323 1.09833,0.37649 1.39,0.5911 1.93381,0.43791 0.54377,-0.15337 0.65909,-0.68408 0.89518,-1.4384 0.23599,-0.75437 3.37004,-9.13217 4.43958,-11.78221 1.07016,-2.64973 1.2074,-3.09415 1.54155,-4.11222 0.33185,-1.01896 -0.0275,-1.95167 -0.49613,-2.4369 -0.46857,-0.48523 -1.2321,-0.55246 -1.45735,-0.54876 -0.22514,0.004 -1.71961,-0.10436 -2.47746,-0.21876 -1.03162,-0.15591 -2.52606,-0.64233 -3.0231,-0.8347 -1.2685,-0.49176 -2.58245,-1.4166 -3.23185,-2.85001 -0.47519,-1.04886 -0.68091,-1.87355 -0.63716,-3.61995 0.037,-1.47834 0.30348,-2.99613 0.51525,-3.84046 0.21317,-0.84405 0.54415,-1.80453 0.9969,-2.69077 0.85641,-1.68473 1.77633,-3.12979 2.84492,-4.3096 0.58308,-0.7771 2.18395,-1.50501 3.27946,-1.57787 1.68424,-0.15315 2.70226,0.0904 4.25296,0.70967 0.80728,0.3232 2.14069,0.90561 2.98304,1.16488 0.84221,0.25955 1.50618,0.19711 1.90601,-0.0148 0.44222,-0.23323 0.79925,-0.53668 0.94265,-1.59641 0.14322,-1.05982 0.22947,-3.24872 0.36892,-4.99624 0.13942,-1.74754 0.10266,-3.10552 0.20702,-4.80324 0.1052,-1.69771 0.0448,-3.05444 0.0668,-4.30514 0.0213,-1.25079 0.0539,-2.72312 0.0448,-3.44658 -0.0106,-0.81993 -0.0868,-1.63623 -0.47172,-2.08026 -0.38487,-0.44396 -1.13135,-0.37725 -1.65718,-0.3909 -0.59978,-0.0148 -1.99884,0.008 -3.25008,-0.0266 -1.25131,-0.0344 -3.73287,0.0642 -5.55458,-0.0211 -1.82168,-0.0862 -3.85979,-0.0304 -5.39486,-0.17555 -1.53515,-0.14513 -2.8678,-0.24071 -3.8036,-0.33751 -0.68934,-0.0714 -1.25136,-0.42363 -1.5602,-0.87099 -0.36873,-0.53416 -0.28337,-1.14419 -0.12612,-2.0087 0.15781,-0.86428 1.06716,-2.89733 1.36979,-3.70229 0.35642,-0.95258 0.86187,-2.78706 0.72908,-3.65108 -0.13246,-0.86391 -0.58579,-1.59557 -1.25639,-2.35969 -0.62844,-0.7161 -1.49343,-1.29291 -2.19437,-1.81249 -0.92448,-0.6852 -1.73752,-1.18193 -2.61997,-1.60833 -0.85863,-0.41472 -2.05889,-0.80244 -2.77472,-1.01238 -0.70092,-0.20512 -1.85242,-0.4332 -2.69931,-0.52195 -0.9718,-0.10182 -2.27251,0.004 -3.20497,0.14344 -0.60176,0.0932 -1.85848,0.6563 -2.40853,1.07041 -0.54996,0.41413 -1.1316,1.04497 -1.46056,1.67715 -0.3291,0.6322 -0.84306,1.76059 -1.06392,2.60042 -0.2206,0.8399 -0.47395,2.42767 -0.49315,3.11395 -0.019,0.68655 -0.0953,1.62985 -0.57897,2.13831 -0.30117,0.31669 -0.88476,0.51248 -1.28265,0.55705 -0.4393,0.002 -0.91036,-0.0839 -2.02304,-0.48012 -1.79431,-0.59749 -3.84615,-1.40163 -6.19901,-2.32078 -2.35295,-0.91916 -3.96333,-1.56105 -5.96573,-2.28558 -1.00592,-0.36339 -2.49326,-0.93289 -3.03712,-1.03518 -0.57628,-0.109 -1.0229,0.0473 -1.32399,0.24321 -0.17132,0.16287 -0.44127,0.44839 -0.63824,0.73043 -0.18801,0.3178 -0.47665,1.0692 -0.80425,2.12715 -0.41589,1.30861 -2.41971,7.47031 -3.40948,9.97053 -0.98978,2.50014 -1.4706,4.37489 -1.78364,5.5039 -0.3129,1.12914 0.87542,1.46314 1.3833,1.73385 0.60645,0.25655 1.37429,0.51487 2.68693,0.55985 1.31278,0.0454 2.81522,0.19837 3.76577,0.59449 0.95067,0.39585 1.76104,0.74174 2.36305,1.43478 0.38557,0.4854 0.89818,1.3467 1.06762,2.36642 0.12315,0.94675 0.10562,4.41987 -0.4422,6.26368 -0.40135,1.66325 -1.45913,3.60765 -2.18837,4.61677 -1.02772,1.47156 -2.16817,2.70796 -3.29122,3.39664 -0.994,0.64597 -2.63216,0.94799 -4.47043,0.19391 -1.22233,-0.41642 -2.98094,-1.16539 -4.24265,-1.52369 -0.96217,-0.30037 -2.2471,-0.0739 -2.59242,0.63243 -0.30069,0.58095 -0.37902,1.15621 -0.45053,1.99098 -0.14005,2.0274 -0.15569,10.41543 -0.38527,15.36676 -0.18949,2.33359 0.0349,3.10454 0.18928,3.46627 0.19308,0.45465 1.98464,0.40712 2.49307,0.39732 1.01037,5.9e-4 1.69741,-0.0234 2.8396,-0.0338 2.87986,0.019 13.73234,-0.14808 14.88798,0.1597 0.38749,0.0773 0.79085,0.21471 1.06445,0.37805 0.27944,0.1785 0.45634,0.39632 0.55793,0.72998 0.14956,0.47698 -0.21273,1.48303 -0.44447,2.12436 -0.23116,0.64137 -0.7578,2.22798 -1.55181,3.93475 -0.79402,1.70689 -0.56458,3.35052 -0.34096,3.85472 0.22357,0.50422 0.81286,1.75166 2.03621,2.84788 1.22337,1.09623 2.41195,1.64477 3.94957,2.31728 1.32228,0.57849 3.65161,1.09044 3.87781,1.11761 z"
         inkscape:connector-curvature="0"
         sodipodi:nodetypes="ccccccccccccccccccccccccccccccccccccccccccccccccccccccccccccccccccccccccccccccccccccccccc" />
      <path
         sodipodi:nodetypes="ccccccccccccccccccccccccccccccccccccccccccccccccccccccccccccccccccccccccccccccccccccccccc"
         inkscape:connector-curvature="0"
         d="m 352.77823,402.08489 c 2.51236,0.50666 4.7645,0.65364 6.16777,-0.0467 1.40329,-0.7003 1.69153,-0.87384 2.26741,-1.55593 0.5759,-0.68212 0.82205,-1.27105 1.05723,-2.19267 0.23531,-0.92153 0.10436,-4.35159 0.0742,-4.73062 -0.0304,-0.37901 0.25073,-1.08502 0.36245,-1.354 0.20893,-0.50349 0.60588,-1.0262 0.85304,-1.16192 0.43151,-0.19117 0.82555,-0.3464 2.01523,0.0944 1.49184,0.44681 7.33816,2.53173 10.43332,3.82873 2.42602,1.05625 4.35958,1.91189 5.05015,2.1323 1.09833,0.37649 1.39,0.5911 1.93381,0.43791 0.54377,-0.15337 0.65909,-0.68408 0.89518,-1.4384 0.23599,-0.75437 3.37004,-9.13217 4.43958,-11.78221 1.07016,-2.64973 1.2074,-3.09415 1.54155,-4.11222 0.33185,-1.01896 -0.0275,-1.95167 -0.49613,-2.4369 -0.46857,-0.48523 -1.2321,-0.55246 -1.45735,-0.54876 -0.22514,0.004 -1.71961,-0.10436 -2.47746,-0.21876 -1.03162,-0.15591 -2.52606,-0.64233 -3.0231,-0.8347 -1.2685,-0.49176 -2.58245,-1.4166 -3.23185,-2.85001 -0.47519,-1.04886 -0.68091,-1.87355 -0.63716,-3.61995 0.037,-1.47834 0.30348,-2.99613 0.51525,-3.84046 0.21317,-0.84405 0.54415,-1.80453 0.9969,-2.69077 0.85641,-1.68473 1.77633,-3.12979 2.84492,-4.3096 0.58308,-0.7771 2.18395,-1.50501 3.27946,-1.57787 1.68424,-0.15315 2.70226,0.0904 4.25296,0.70967 0.80728,0.3232 2.14069,0.90561 2.98304,1.16488 0.84221,0.25955 1.50618,0.19711 1.90601,-0.0148 0.44222,-0.23323 0.79925,-0.53668 0.94265,-1.59641 0.14322,-1.05982 0.22947,-3.24872 0.36892,-4.99624 0.13942,-1.74754 0.10266,-3.10552 0.20702,-4.80324 0.1052,-1.69771 0.0448,-3.05444 0.0668,-4.30514 0.0213,-1.25079 0.0539,-2.72312 0.0448,-3.44658 -0.0106,-0.81993 -0.0868,-1.63623 -0.47172,-2.08026 -0.38487,-0.44396 -1.13135,-0.37725 -1.65718,-0.3909 -0.59978,-0.0148 -1.99884,0.008 -3.25008,-0.0266 -1.25131,-0.0344 -3.73287,0.0642 -5.55458,-0.0211 -1.82168,-0.0862 -3.85979,-0.0304 -5.39486,-0.17555 -1.53515,-0.14513 -2.8678,-0.24071 -3.8036,-0.33751 -0.68934,-0.0714 -1.25136,-0.42363 -1.5602,-0.87099 -0.36873,-0.53416 -0.28337,-1.14419 -0.12612,-2.0087 0.15781,-0.86428 1.06716,-2.89733 1.36979,-3.70229 0.35642,-0.95258 0.86187,-2.78706 0.72908,-3.65108 -0.13246,-0.86391 -0.58579,-1.59557 -1.25639,-2.35969 -0.62844,-0.7161 -1.49343,-1.29291 -2.19437,-1.81249 -0.92448,-0.6852 -1.73752,-1.18193 -2.61997,-1.60833 -0.85863,-0.41472 -2.05889,-0.80244 -2.77472,-1.01238 -0.70092,-0.20512 -1.85242,-0.4332 -2.69931,-0.52195 -0.9718,-0.10182 -2.27251,0.004 -3.20497,0.14344 -0.60176,0.0932 -1.85848,0.6563 -2.40853,1.07041 -0.54996,0.41413 -1.1316,1.04497 -1.46056,1.67715 -0.3291,0.6322 -0.84306,1.76059 -1.06392,2.60042 -0.2206,0.8399 -0.47395,2.42767 -0.49315,3.11395 -0.019,0.68655 -0.0953,1.62985 -0.57897,2.13831 -0.30117,0.31669 -0.88476,0.51248 -1.28265,0.55705 -0.4393,0.002 -0.91036,-0.0839 -2.02304,-0.48012 -1.79431,-0.59749 -3.84615,-1.40163 -6.19901,-2.32078 -2.35295,-0.91916 -3.96333,-1.56105 -5.96573,-2.28558 -1.00592,-0.36339 -2.49326,-0.93289 -3.03712,-1.03518 -0.57628,-0.109 -1.0229,0.0473 -1.32399,0.24321 -0.17132,0.16287 -0.44127,0.44839 -0.63824,0.73043 -0.18801,0.3178 -0.47665,1.0692 -0.80425,2.12715 -0.41589,1.30861 -2.41971,7.47031 -3.40948,9.97053 -0.98978,2.50014 -1.4706,4.37489 -1.78364,5.5039 -0.3129,1.12914 0.87542,1.46314 1.3833,1.73385 0.60645,0.25655 1.37429,0.51487 2.68693,0.55985 1.31278,0.0454 2.81522,0.19837 3.76577,0.59449 0.95067,0.39585 1.76104,0.74174 2.36305,1.43478 0.38557,0.4854 0.89818,1.3467 1.06762,2.36642 0.12315,0.94675 0.10562,4.41987 -0.4422,6.26368 -0.40135,1.66325 -1.45913,3.60765 -2.18837,4.61677 -1.02772,1.47156 -2.16817,2.70796 -3.29122,3.39664 -0.994,0.64597 -2.63216,0.94799 -4.47043,0.19391 -1.22233,-0.41642 -2.98094,-1.16539 -4.24265,-1.52369 -0.96217,-0.30037 -2.2471,-0.0739 -2.59242,0.63243 -0.30069,0.58095 -0.37902,1.15621 -0.45053,1.99098 -0.14005,2.0274 -0.15569,10.41543 -0.38527,15.36676 -0.18949,2.33359 0.0349,3.10454 0.18928,3.46627 0.19308,0.45465 1.98464,0.40712 2.49307,0.39732 1.01037,5.9e-4 1.69741,-0.0234 2.8396,-0.0338 2.87986,0.019 13.73234,-0.14808 14.88798,0.1597 0.38749,0.0773 0.79085,0.21471 1.06445,0.37805 0.27944,0.1785 0.45634,0.39632 0.55793,0.72998 0.14956,0.47698 -0.21273,1.48303 -0.44447,2.12436 -0.23116,0.64137 -0.7578,2.22798 -1.55181,3.93475 -0.79402,1.70689 -0.56458,3.35052 -0.34096,3.85472 0.22357,0.50422 0.81286,1.75166 2.03621,2.84788 1.22337,1.09623 2.41195,1.64477 3.94957,2.31728 1.32228,0.57849 3.65161,1.09044 3.87781,1.11761 z"
         style="color:#000000;display:inline;overflow:visible;visibility:visible;fill:#aad400;fill-opacity:1;fill-rule:nonzero;stroke:#000000;stroke-width:2.21884298;marker:none;enable-background:accumulate"
         id="path3019"
         inkscape:export-filename="C:\Users\Jesper\Pictures\Inkscape\text4655.png"
         inkscape:export-xdpi="60.48"
         inkscape:export-ydpi="60.48"
         inkscape:tile-cx="948.18366"
         inkscape:tile-cy="449.81082"
         inkscape:tile-w="285.01443"
         inkscape:tile-h="236.12934"
         inkscape:tile-x0="805.67645"
         inkscape:tile-y0="331.74615" />
      <path
         inkscape:tile-y0="331.74615"
         inkscape:tile-x0="805.67645"
         inkscape:tile-h="236.12934"
         inkscape:tile-w="285.01443"
         inkscape:tile-cy="449.81082"
         inkscape:tile-cx="948.18366"
         inkscape:export-ydpi="60.48"
         inkscape:export-xdpi="60.48"
         inkscape:export-filename="C:\Users\Jesper\Pictures\Inkscape\text4655.png"
         id="path3021"
         style="color:#000000;display:inline;overflow:visible;visibility:visible;fill:#ffcc00;fill-opacity:1;fill-rule:nonzero;stroke:#000000;stroke-width:2.21884298;marker:none;enable-background:accumulate"
         d="m 214.35548,358.82881 c -0.50666,2.51236 -0.65364,4.7645 0.0467,6.16777 0.7003,1.40329 0.87384,1.69153 1.55593,2.26741 0.68212,0.5759 1.27105,0.82205 2.19267,1.05723 0.92153,0.23531 4.35159,0.10436 4.73062,0.0742 0.37901,-0.0304 1.08502,0.25073 1.354,0.36245 0.50349,0.20893 1.0262,0.60588 1.16192,0.85304 0.19117,0.43151 0.3464,0.82555 -0.0944,2.01523 -0.44681,1.49184 -2.53173,7.33816 -3.82873,10.43332 -1.05625,2.42602 -1.91189,4.35958 -2.1323,5.05015 -0.37649,1.09833 -0.5911,1.39 -0.43791,1.93381 0.15337,0.54377 0.68408,0.65909 1.4384,0.89518 0.75437,0.23599 9.13217,3.37004 11.78221,4.43958 2.64973,1.07016 3.09415,1.2074 4.11222,1.54155 1.01896,0.33185 1.95167,-0.0275 2.4369,-0.49613 0.48523,-0.46857 0.55246,-1.2321 0.54876,-1.45735 -0.004,-0.22514 0.10436,-1.71961 0.21876,-2.47746 0.15591,-1.03162 0.64233,-2.52606 0.8347,-3.0231 0.49176,-1.2685 1.4166,-2.58245 2.85001,-3.23185 1.04886,-0.47519 1.87355,-0.68091 3.61995,-0.63716 1.47834,0.037 2.99613,0.30348 3.84046,0.51525 0.84405,0.21317 1.80453,0.54415 2.69077,0.9969 1.68473,0.85641 3.12979,1.77633 4.3096,2.84492 0.7771,0.58308 1.50501,2.18395 1.57787,3.27946 0.15315,1.68424 -0.0904,2.70226 -0.70967,4.25296 -0.3232,0.80728 -0.90561,2.14069 -1.16488,2.98304 -0.25955,0.84221 -0.19711,1.50618 0.0148,1.90601 0.23323,0.44222 0.53668,0.79925 1.59641,0.94265 1.05982,0.14322 3.24872,0.22947 4.99624,0.36892 1.74754,0.13942 3.10552,0.10266 4.80324,0.20702 1.69771,0.1052 3.05444,0.0448 4.30514,0.0668 1.25079,0.0213 2.72312,0.0539 3.44658,0.0448 0.81993,-0.0106 1.63623,-0.0868 2.08026,-0.47172 0.44396,-0.38487 0.37725,-1.13135 0.3909,-1.65718 0.0148,-0.59978 -0.008,-1.99884 0.0266,-3.25008 0.0344,-1.25131 -0.0642,-3.73287 0.0211,-5.55458 0.0862,-1.82168 0.0304,-3.85979 0.17555,-5.39486 0.14513,-1.53515 0.24071,-2.8678 0.33751,-3.8036 0.0714,-0.68934 0.42363,-1.25136 0.87099,-1.5602 0.53416,-0.36873 1.14419,-0.28337 2.0087,-0.12612 0.86428,0.15781 2.89733,1.06716 3.70229,1.36979 0.95258,0.35642 2.78706,0.86187 3.65108,0.72908 0.86391,-0.13246 1.59557,-0.58579 2.35969,-1.25639 0.7161,-0.62844 1.29291,-1.49343 1.81249,-2.19437 0.6852,-0.92448 1.18193,-1.73752 1.60833,-2.61997 0.41472,-0.85863 0.80244,-2.05889 1.01238,-2.77472 0.20512,-0.70092 0.4332,-1.85242 0.52195,-2.69931 0.10182,-0.9718 -0.004,-2.27251 -0.14344,-3.20497 -0.0932,-0.60176 -0.6563,-1.85848 -1.07041,-2.40853 -0.41413,-0.54996 -1.04497,-1.1316 -1.67715,-1.46056 -0.6322,-0.3291 -1.76059,-0.84306 -2.60042,-1.06392 -0.8399,-0.2206 -2.42767,-0.47395 -3.11395,-0.49315 -0.68655,-0.019 -1.62985,-0.0953 -2.13831,-0.57897 -0.31669,-0.30117 -0.51248,-0.88476 -0.55705,-1.28265 -0.002,-0.4393 0.0839,-0.91036 0.48012,-2.02304 0.59749,-1.79431 1.40163,-3.84615 2.32078,-6.19901 0.91916,-2.35295 1.56105,-3.96333 2.28558,-5.96573 0.36339,-1.00592 0.93289,-2.49326 1.03518,-3.03712 0.109,-0.57628 -0.0473,-1.0229 -0.24321,-1.32399 -0.16287,-0.17132 -0.44839,-0.44127 -0.73043,-0.63824 -0.3178,-0.18801 -1.0692,-0.47665 -2.12715,-0.80425 -1.30861,-0.41589 -7.47031,-2.41971 -9.97053,-3.40948 -2.50014,-0.98978 -4.37489,-1.4706 -5.5039,-1.78364 -1.12914,-0.3129 -1.46314,0.87542 -1.73385,1.3833 -0.25655,0.60645 -0.51487,1.37429 -0.55985,2.68693 -0.0454,1.31278 -0.19837,2.81522 -0.59449,3.76577 -0.39585,0.95067 -0.74174,1.76104 -1.43478,2.36305 -0.4854,0.38557 -1.3467,0.89818 -2.36642,1.06762 -0.94675,0.12315 -4.41987,0.10562 -6.26368,-0.4422 -1.66325,-0.40135 -3.60765,-1.45913 -4.61677,-2.18837 -1.47156,-1.02772 -2.70796,-2.16817 -3.39664,-3.29122 -0.64597,-0.994 -0.94799,-2.63216 -0.19391,-4.47043 0.41642,-1.22233 1.16539,-2.98094 1.52369,-4.24265 0.30037,-0.96217 0.0739,-2.2471 -0.63243,-2.59242 -0.58095,-0.30069 -1.15621,-0.37902 -1.99098,-0.45053 -2.0274,-0.14005 -10.41543,-0.15569 -15.36676,-0.38527 -2.33359,-0.18949 -3.10454,0.0349 -3.46627,0.18928 -0.45465,0.19308 -0.40712,1.98464 -0.39732,2.49307 -5.9e-4,1.01037 0.0234,1.69741 0.0338,2.8396 -0.019,2.87986 0.14808,13.73234 -0.1597,14.88798 -0.0773,0.38749 -0.21471,0.79085 -0.37805,1.06445 -0.1785,0.27944 -0.39632,0.45634 -0.72998,0.55793 -0.47698,0.14956 -1.48303,-0.21273 -2.12436,-0.44447 -0.64137,-0.23116 -2.22798,-0.7578 -3.93475,-1.55181 -1.70689,-0.79402 -3.35052,-0.56458 -3.85472,-0.34096 -0.50422,0.22357 -1.75166,0.81286 -2.84788,2.03621 -1.09623,1.22337 -1.64477,2.41195 -2.31728,3.94957 -0.57849,1.32228 -1.09044,3.65161 -1.11761,3.87781 z"
         inkscape:connector-curvature="0"
         sodipodi:nodetypes="ccccccccccccccccccccccccccccccccccccccccccccccccccccccccccccccccccccccccccccccccccccccccc" />
      <path
         sodipodi:nodetypes="ccccccccccccccccccccccccccccccccccccccccccccccccccccccccccccccccccccccccccccccccccccccccc"
         inkscape:connector-curvature="0"
         d="m 260.78405,432.75738 c -0.50666,2.51236 -0.65364,4.7645 0.0467,6.16777 0.7003,1.40329 0.87384,1.69153 1.55593,2.26741 0.68212,0.5759 1.27105,0.82205 2.19267,1.05723 0.92153,0.23531 4.35159,0.10436 4.73062,0.0742 0.37901,-0.0304 1.08502,0.25073 1.354,0.36245 0.50349,0.20893 1.0262,0.60588 1.16192,0.85304 0.19117,0.43151 0.3464,0.82555 -0.0944,2.01523 -0.44681,1.49184 -2.53173,7.33816 -3.82873,10.43332 -1.05625,2.42602 -1.91189,4.35958 -2.1323,5.05015 -0.37649,1.09833 -0.5911,1.39 -0.43791,1.93381 0.15337,0.54377 0.68408,0.65909 1.4384,0.89518 0.75437,0.23599 9.13217,3.37004 11.78221,4.43958 2.64973,1.07016 3.09415,1.2074 4.11222,1.54155 1.01896,0.33185 1.95167,-0.0275 2.4369,-0.49613 0.48523,-0.46857 0.55246,-1.2321 0.54876,-1.45735 -0.004,-0.22514 0.10436,-1.71961 0.21876,-2.47746 0.15591,-1.03162 0.64233,-2.52606 0.8347,-3.0231 0.49176,-1.2685 1.4166,-2.58245 2.85001,-3.23185 1.04886,-0.47519 1.87355,-0.68091 3.61995,-0.63716 1.47834,0.037 2.99613,0.30348 3.84046,0.51525 0.84405,0.21317 1.80453,0.54415 2.69077,0.9969 1.68473,0.85641 3.12979,1.77633 4.3096,2.84492 0.7771,0.58308 1.50501,2.18395 1.57787,3.27946 0.15315,1.68424 -0.0904,2.70226 -0.70967,4.25296 -0.3232,0.80728 -0.90561,2.14069 -1.16488,2.98304 -0.25955,0.84221 -0.19711,1.50618 0.0148,1.90601 0.23323,0.44222 0.53668,0.79925 1.59641,0.94265 1.05982,0.14322 3.24872,0.22947 4.99624,0.36892 1.74754,0.13942 3.10552,0.10266 4.80324,0.20702 1.69771,0.1052 3.05444,0.0448 4.30514,0.0668 1.25079,0.0213 2.72312,0.0539 3.44658,0.0448 0.81993,-0.0106 1.63623,-0.0868 2.08026,-0.47172 0.44396,-0.38487 0.37725,-1.13135 0.3909,-1.65718 0.0148,-0.59978 -0.008,-1.99884 0.0266,-3.25008 0.0344,-1.25131 -0.0642,-3.73287 0.0211,-5.55458 0.0862,-1.82168 0.0304,-3.85979 0.17555,-5.39486 0.14513,-1.53515 0.24071,-2.8678 0.33751,-3.8036 0.0714,-0.68934 0.42363,-1.25136 0.87099,-1.5602 0.53416,-0.36873 1.14419,-0.28337 2.0087,-0.12612 0.86428,0.15781 2.89733,1.06716 3.70229,1.36979 0.95258,0.35642 2.78706,0.86187 3.65108,0.72908 0.86391,-0.13246 1.59557,-0.58579 2.35969,-1.25639 0.7161,-0.62844 1.29291,-1.49343 1.81249,-2.19437 0.6852,-0.92448 1.18193,-1.73752 1.60833,-2.61997 0.41472,-0.85863 0.80244,-2.05889 1.01238,-2.77472 0.20512,-0.70092 0.4332,-1.85242 0.52195,-2.69931 0.10182,-0.9718 -0.004,-2.27251 -0.14344,-3.20497 -0.0932,-0.60176 -0.6563,-1.85848 -1.07041,-2.40853 -0.41413,-0.54996 -1.04497,-1.1316 -1.67715,-1.46056 -0.6322,-0.3291 -1.76059,-0.84306 -2.60042,-1.06392 -0.8399,-0.2206 -2.42767,-0.47395 -3.11395,-0.49315 -0.68655,-0.019 -1.62985,-0.0953 -2.13831,-0.57897 -0.31669,-0.30117 -0.51248,-0.88476 -0.55705,-1.28265 -0.002,-0.4393 0.0839,-0.91036 0.48012,-2.02304 0.59749,-1.79431 1.40163,-3.84615 2.32078,-6.19901 0.91916,-2.35295 1.56105,-3.96333 2.28558,-5.96573 0.36339,-1.00592 0.93289,-2.49326 1.03518,-3.03712 0.109,-0.57628 -0.0473,-1.0229 -0.24321,-1.32399 -0.16287,-0.17132 -0.44839,-0.44127 -0.73043,-0.63824 -0.3178,-0.18801 -1.0692,-0.47665 -2.12715,-0.80425 -1.30861,-0.41589 -7.47031,-2.41971 -9.97053,-3.40948 -2.50014,-0.98978 -4.37489,-1.4706 -5.5039,-1.78364 -1.12914,-0.3129 -1.46314,0.87542 -1.73385,1.3833 -0.25655,0.60645 -0.51487,1.37429 -0.55985,2.68693 -0.0454,1.31278 -0.19837,2.81522 -0.59449,3.76577 -0.39585,0.95067 -0.74174,1.76104 -1.43478,2.36305 -0.4854,0.38557 -1.3467,0.89818 -2.36642,1.06762 -0.94675,0.12315 -4.41987,0.10562 -6.26368,-0.4422 -1.66325,-0.40135 -3.60765,-1.45913 -4.61677,-2.18837 -1.47156,-1.02772 -2.70796,-2.16817 -3.39664,-3.29122 -0.64597,-0.994 -0.94799,-2.63216 -0.19391,-4.47043 0.41642,-1.22233 1.16539,-2.98094 1.52369,-4.24265 0.30037,-0.96217 0.0739,-2.2471 -0.63243,-2.59242 -0.58095,-0.30069 -1.15621,-0.37902 -1.99098,-0.45053 -2.0274,-0.14005 -10.41543,-0.15569 -15.36676,-0.38527 -2.33359,-0.18949 -3.10454,0.0349 -3.46627,0.18928 -0.45465,0.19308 -0.40712,1.98464 -0.39732,2.49307 -5.9e-4,1.01037 0.0234,1.69741 0.0338,2.8396 -0.019,2.87986 0.14808,13.73234 -0.1597,14.88798 -0.0773,0.38749 -0.21471,0.79085 -0.37805,1.06445 -0.1785,0.27944 -0.39632,0.45634 -0.72998,0.55793 -0.47698,0.14956 -1.48303,-0.21273 -2.12436,-0.44447 -0.64137,-0.23116 -2.22798,-0.7578 -3.93475,-1.55181 -1.70689,-0.79402 -3.35052,-0.56458 -3.85472,-0.34096 -0.50422,0.22357 -1.75166,0.81286 -2.84788,2.03621 -1.09623,1.22337 -1.64477,2.41195 -2.31728,3.94957 -0.57849,1.32228 -1.09044,3.65161 -1.11761,3.87781 z"
         style="color:#000000;display:inline;overflow:visible;visibility:visible;fill:#0088aa;fill-opacity:1;fill-rule:nonzero;stroke:#000000;stroke-width:2.21884298;marker:none;enable-background:accumulate"
         id="path3023"
         inkscape:export-filename="C:\Users\Jesper\Pictures\Inkscape\text4655.png"
         inkscape:export-xdpi="60.48"
         inkscape:export-ydpi="60.48"
         inkscape:tile-cx="948.18366"
         inkscape:tile-cy="449.81082"
         inkscape:tile-w="285.01443"
         inkscape:tile-h="236.12934"
         inkscape:tile-x0="805.67645"
         inkscape:tile-y0="331.74615" />
    </g>
  </g>
</svg>
